# xmcd CD database file
#
# Track frame offsets:
#	182
#	10885
#	22412
#	36887
#	52272
#	62697
#	75982
#	88222
#	101767
#	115045
#	129077
#	139457
#	153982
#	166135
#	180630
#	198347
#	207250
#	217605
#	232207
#	250110
#	260610
#	274132
#	293115
#	307675
#	317982
#
# Disc length: 4390 seconds
#
# Revision: 0
# Processed by: cddbd v1.5.2PL0 Copyright (c) Steve Scherf et al.
# Submitted via: CDex 1.51
#
DISCID=65112419
DTITLE=Plas Johnson - The Best Of Plas Johnson
DYEAR=1900
DGENRE=Jazz
TTITLE0=Hot Spot
TTITLE1=Dungaree Hop
TTITLE2=Red Jacket
TTITLE3=Caravan
TTITLE4=Blue Jean Shuffle
TTITLE5=Drum Magic
TTITLE6=Gee Gee
TTITLE7=Last Call
TTITLE8=Drum Tatoo
TTITLE9=Cotton Tail
TTITLE10=Makin' Whoopee
TTITLE11=Red Cider
TTITLE12=Plasma
TTITLE13=Drum Boogie
TTITLE14=Last Call
TTITLE15=Bar-B-Que
TTITLE16=Portside
TTITLE17=It Had To Be You
TTITLE18=Nightingale
TTITLE19=G.J.'s Drums
TTITLE20=Air Mail Special
TTITLE21=Bullfrog
TTITLE22=Antipathy
TTITLE23=Turf
TTITLE24=Night Fright
EXTD=
EXTT0=
EXTT1=
EXTT2=
EXTT3=
EXTT4=
EXTT5=
EXTT6=
EXTT7=
EXTT8=
EXTT9=
EXTT10=
EXTT11=
EXTT12=
EXTT13=
EXTT14=
EXTT15=
EXTT16=
EXTT17=
EXTT18=
EXTT19=
EXTT20=
EXTT21=
EXTT22=
EXTT23=
EXTT24=
PLAYORDER=
